<svg version="1.1" xmlns="http://www.w3.org/2000/svg" xmlns:xlink="http://www.w3.org/1999/xlink" width="293.32542" height="191.86051" viewBox="0,0,293.32542,191.86051"><defs><linearGradient x1="224.16927" y1="180.04879" x2="172.5017" y2="178.33641" gradientUnits="userSpaceOnUse" id="color-1"><stop offset="0" stop-color="#ffd3d3"/><stop offset="1" stop-color="#ffc7c7"/></linearGradient></defs><g transform="translate(-94.00594,-68.35986)"><g data-paper-data="{&quot;isPaintingLayer&quot;:true}" fill-rule="nonzero" stroke-linejoin="miter" stroke-miterlimit="10" stroke-dasharray="" stroke-dashoffset="0" style="mix-blend-mode: normal"><path d="M191.32787,192.50109c-13.63669,-7.95769 -20.14489,-22.37327 -22.97755,-31.15415c-1.07624,-3.33621 1.22231,-5.4604 4.28968,-3.76337c6.2441,3.45454 16.46528,8.50179 27.2484,11.2924c12.3012,3.18347 20.0785,10.78823 17.64207,17.98147c-2.43643,7.19324 -15.22804,12.04786 -26.20259,5.64366z" fill="#ffb3b3" stroke="none" stroke-width="0" stroke-linecap="butt"/><path d="M199.17233,192.95027c-13.34045,-5.85369 -22.55288,-20.33569 -25.70589,-27.21305c-1.19796,-2.61299 -0.1503,-3.58594 2.7123,-2.06119c6.10867,3.25377 19.47357,8.36925 29.83484,10.2166c11.81997,2.10741 19.5926,7.88134 17.67061,13.67809c-1.92199,5.79675 -13.77573,10.09049 -24.51187,5.37955z" fill="url(#color-1)" stroke="none" stroke-width="0" stroke-linecap="butt"/><g fill="#ffd3d3" stroke="none" stroke-width="0" stroke-linecap="butt"><path d="M219.4219,161.54856c-1.64344,4.08408 -8.40542,5.20998 -15.10333,2.51476c-6.69791,-2.69524 -10.79539,-8.19096 -9.15192,-12.27504c1.64344,-4.08408 8.40542,-5.20999 15.10333,-2.51477c6.69791,2.69524 10.79535,8.19096 9.15192,12.27504z"/><g><path d="M274.07785,173.23702c0,21.61693 -15.2684,34.01261 -34.10294,34.01261c-18.83455,0 -34.10294,-12.39572 -34.10294,-34.01261c0,-21.61692 15.2684,-33.49978 34.10294,-33.49978c18.83454,0 34.10294,11.88288 34.10294,33.4998z"/><path d="M269.38857,150.44944c6.69791,-2.69524 13.45989,-1.56934 15.10332,2.51474c1.64344,4.08408 -2.45402,9.57979 -9.15193,12.27501c-6.69791,2.69524 -13.45989,1.56935 -15.10333,-2.51473c-1.64344,-4.08408 2.45403,-9.57981 9.15193,-12.27502z" data-paper-data="{&quot;index&quot;:null}"/><path d="M268.81723,211.9803c-3.71017,2.36966 -9.86827,-0.64197 -13.75452,-6.72664c-3.88624,-6.08467 -4.02894,-12.93826 -0.3188,-15.30792c3.71017,-2.36966 9.86827,0.64197 13.75452,6.72666c3.88624,6.08467 4.02894,12.93827 0.3188,15.30793z" data-paper-data="{&quot;index&quot;:null}"/></g></g><path d="M264.38457,148.65482c-6.90095,3.63268 -14.86735,5.70499 -23.35153,5.70499c-9.14273,0 -17.49025,-2.40651 -24.74506,-6.57887c0,0 16.31477,-16.98818 23.57779,-16.89615c12.29009,0.15572 24.5188,17.77002 24.5188,17.77002z" fill="#ffc9c9" stroke="none" stroke-width="0" stroke-linecap="butt"/><g fill="#ffb3b3" stroke="none" stroke-width="0" stroke-linecap="butt"><path d="M293.30615,77.77803c15.53683,-5.08197 22.31723,-2.62316 24.02183,2.58822c1.70459,5.21137 -2.31209,11.20186 -17.84894,16.28382c-15.53683,5.08197 -29.51379,4.97708 -31.21839,-0.23426c-1.70459,-5.21137 9.50865,-13.55578 25.04549,-18.63775z" data-paper-data="{&quot;index&quot;:null}"/><path d="M215.09463,96.94111c-1.7046,5.21137 -15.68153,5.31627 -31.2184,0.23429c-15.53682,-5.08197 -19.55354,-11.07246 -17.84894,-16.28382c1.7046,-5.21137 8.48501,-7.67019 24.02183,-2.58821c15.53683,5.08197 26.75008,13.42638 25.04548,18.63774z"/></g><g fill="#ffb3b3" stroke="none" stroke-width="0" stroke-linecap="butt"><path d="M210.27789,108.48265c-0.04121,5.4829 -13.32598,9.82809 -29.67239,9.70523c-16.34641,-0.12286 -21.99285,-4.61034 -21.95163,-10.09323c0.04121,-5.4829 5.75446,-9.885 22.10088,-9.76212c16.34641,0.12286 29.56437,4.66726 29.52313,10.15015z"/><path d="M300.58257,98.3325c16.34641,-0.12286 22.05964,4.27922 22.10085,9.76215c0.0412,5.48292 -5.60523,9.97037 -21.95163,10.09326c-16.34641,0.12286 -29.63117,-4.2223 -29.67237,-9.70523c-0.0412,-5.48292 13.17676,-10.0273 29.52314,-10.15015z" data-paper-data="{&quot;index&quot;:null}"/></g><g fill="#ffb3b3" stroke="none" stroke-width="0" stroke-linecap="butt"><path d="M267.73541,120.46203c1.70459,-5.21137 15.68154,-5.31627 31.21837,-0.23426c15.53682,5.08197 19.55355,11.07246 17.84894,16.28383c-1.70459,5.21137 -8.48501,7.67019 -24.02183,2.58822c-15.53685,-5.082 -26.75009,-13.42638 -25.04549,-18.63775z" data-paper-data="{&quot;index&quot;:null}"/><path d="M189.52389,138.57458c-15.53682,5.08197 -22.31723,2.62316 -24.02183,-2.58822c-1.7046,-5.21137 2.31209,-11.20185 17.84894,-16.28383c15.53683,-5.08197 29.51379,-4.97708 31.2184,0.23429c1.7046,5.21137 -9.50865,13.55577 -25.04549,18.63776z"/></g><path d="M284.81414,109.19502c0,22.55264 -19.55806,40.83517 -43.68413,40.83517c-24.12609,0 -43.68414,-18.28255 -43.68414,-40.83517c0,-22.55265 19.55806,-40.83516 43.68414,-40.83516c24.12609,0 43.68414,18.28252 43.68414,40.83516z" fill="#ffd3d3" stroke="none" stroke-width="0" stroke-linecap="butt"/><path d="M210.41562,197.93254c3.88624,-6.08467 10.04434,-9.09633 13.75451,-6.72667c3.71016,2.36966 3.56743,9.22325 -0.3188,15.30792c-3.88624,6.08467 -10.04434,9.0963 -13.75451,6.72664c-3.71016,-2.36966 -3.56743,-9.22325 0.31881,-15.30793z" data-paper-data="{&quot;index&quot;:null}" fill="#ffd3d3" stroke="none" stroke-width="0" stroke-linecap="butt"/><path d="M245.45222,121.08982c0,0 -2.12488,2.35029 -4.78451,2.33229c-2.65963,-0.018 -4.91192,-2.3979 -4.91192,-2.3979" fill="none" stroke="#ffb3b3" stroke-width="3" stroke-linecap="round"/><path d="M212.74859,114.12289c0,-3.48276 2.82333,-6.30609 6.30609,-6.30609c3.48276,0 6.30607,2.82333 6.30607,6.30609c0,3.48276 -2.82333,6.30609 -6.30605,6.30609c-3.48276,0 -6.30609,-2.82333 -6.30609,-6.30609z" fill="#808080" stroke="none" stroke-width="0" stroke-linecap="butt"/><path d="M256.05819,114.12289c0,-3.48276 2.82332,-6.30609 6.30609,-6.30609c3.48276,0 6.30607,2.82332 6.30607,6.30609c0,3.48276 -2.82334,6.30609 -6.30605,6.30609c-3.48276,0 -6.30609,-2.82333 -6.30609,-6.30609z" fill="#808080" stroke="none" stroke-width="0" stroke-linecap="butt"/><path d="M204.56731,126.40052v-25.08144h69.16787v25.08144z" fill="none" stroke="none" stroke-width="0" stroke-linecap="butt"/><path d="M131.51986,256.29846c0.30208,0.5625 0.45833,1.04167 0.46875,1.4375c0.02083,0.38542 -0.09896,0.73958 -0.35937,1.0625c-0.26042,0.3125 -0.67187,0.60417 -1.23437,0.875c-0.89583,0.40625 -1.59896,0.49479 -2.10937,0.26563c-0.5,-0.21875 -0.95312,-0.76042 -1.35937,-1.625l-14,-29.78125l-13.89063,29.73438c-0.40625,0.85417 -0.86458,1.39063 -1.375,1.60938c-0.5,0.22917 -1.21875,0.14063 -2.15625,-0.26562c-0.55208,-0.22917 -0.95312,-0.51042 -1.20312,-0.84375c-0.23958,-0.33333 -0.33333,-0.73958 -0.28125,-1.21875c0.0625,-0.48958 0.23958,-1.05208 0.53125,-1.6875l16.07813,-33.54687c0.22917,-0.44792 0.55729,-0.8125 0.98438,-1.09375c0.42708,-0.28125 0.88542,-0.42187 1.375,-0.42187c0.33333,0 0.64583,0.05729 0.9375,0.17188c0.30208,0.11458 0.5625,0.28646 0.78125,0.51563c0.22917,0.21875 0.42187,0.51563 0.57812,0.89063zM102.39486,248.75159l1.90625,-4.3125h17.35938l1.84375,4.3125zM157.11573,233.17346c0.52083,0.41667 0.875,0.80208 1.0625,1.15625c0.1875,0.35417 0.20313,0.74479 0.04688,1.17188c-0.14583,0.42708 -0.47917,0.94271 -1,1.54688l-17.70312,21.78125c-0.47917,0.5625 -0.90625,0.94271 -1.28125,1.14063c-0.375,0.20833 -0.73958,0.25521 -1.09375,0.14063c-0.35417,-0.11458 -0.77604,-0.35417 -1.26562,-0.71875c-0.47917,-0.41667 -0.80729,-0.80208 -0.98437,-1.15625c-0.16667,-0.35417 -0.16667,-0.73437 0,-1.14062c0.17708,-0.41667 0.50521,-0.92187 0.98438,-1.51562l17.70313,-21.78125c0.75,-0.82292 1.34896,-1.28125 1.79688,-1.375c0.44792,-0.09375 1.02604,0.15625 1.73438,0.75zM135.99073,233.17346c0.48958,-0.375 0.91146,-0.61458 1.26563,-0.71875c0.35417,-0.11458 0.69792,-0.05729 1.03125,0.17188c0.34375,0.21875 0.73958,0.60938 1.1875,1.17188l17.6875,21.78125c0.52083,0.59375 0.86458,1.09896 1.03125,1.51563c0.17708,0.40625 0.17708,0.78646 0,1.14063c-0.16667,0.35417 -0.51042,0.73958 -1.03125,1.15625c-0.44792,0.36458 -0.84896,0.60417 -1.20312,0.71875c-0.35417,0.11458 -0.71875,0.06771 -1.09375,-0.14062c-0.375,-0.19792 -0.80208,-0.57812 -1.28125,-1.14062l-17.70312,-21.78125c-0.52083,-0.60417 -0.85937,-1.11979 -1.01562,-1.54687c-0.14583,-0.42708 -0.13542,-0.81771 0.03125,-1.17187c0.17708,-0.35417 0.54167,-0.73958 1.09375,-1.15625zM174.64274,260.22034c-1.83333,0 -3.58333,-0.35417 -5.25,-1.0625c-1.65625,-0.70833 -3.14062,-1.6875 -4.45312,-2.9375c-1.30208,-1.25 -2.32812,-2.71354 -3.07812,-4.39062c-0.73958,-1.6875 -1.10937,-3.51562 -1.10937,-5.48437c0,-1.94792 0.35417,-3.75 1.0625,-5.40625c0.70833,-1.66667 1.69792,-3.13542 2.96875,-4.40625c1.27083,-1.27083 2.73438,-2.26562 4.39063,-2.98437c1.66667,-0.72917 3.45313,-1.09375 5.35938,-1.09375c2.57292,0 4.89583,0.60938 6.96875,1.82813c2.07292,1.20833 3.72396,2.85938 4.95313,4.95313c1.22917,2.08333 1.84375,4.43229 1.84375,7.04688c0,2.05208 -0.375,3.92708 -1.125,5.625c-0.73958,1.69792 -1.74479,3.16667 -3.01562,4.40625c-1.27083,1.22917 -2.72917,2.1875 -4.375,2.875c-1.63542,0.6875 -3.34896,1.03125 -5.14062,1.03125zM174.53336,255.36096c1.5625,0 3.01563,-0.39062 4.35938,-1.17187c1.34375,-0.79167 2.42708,-1.875 3.25,-3.25c0.82292,-1.38542 1.23438,-2.95833 1.23438,-4.71875c0,-1.75 -0.38542,-3.29687 -1.15625,-4.64062c-0.76042,-1.34375 -1.8125,-2.39062 -3.15625,-3.14062c-1.34375,-0.75 -2.875,-1.125 -4.59375,-1.125c-1.64583,0 -3.13021,0.39583 -4.45312,1.1875c-1.32292,0.78125 -2.38542,1.84375 -3.1875,3.1875c-0.80208,1.34375 -1.20312,2.875 -1.20312,4.59375c0,1.79167 0.40625,3.36979 1.21875,4.73438c0.82292,1.36458 1.91667,2.43229 3.28125,3.20313c1.36458,0.76042 2.83333,1.14063 4.40625,1.14063zM202.25274,259.89221c-1.19792,0 -2.27604,-0.10417 -3.23437,-0.3125c-0.94792,-0.20833 -1.77604,-0.53646 -2.48437,-0.98437c-0.70833,-0.44792 -1.29687,-1.02604 -1.76562,-1.73437c-0.46875,-0.70833 -0.80729,-1.5625 -1.01562,-2.5625c-0.19792,-1.01042 -0.29687,-2.1875 -0.29687,-3.53125v-28c0,-0.5625 0.04688,-1.03125 0.14063,-1.40625c0.09375,-0.375 0.32292,-0.66146 0.6875,-0.85937c0.375,-0.20833 0.90104,-0.3125 1.57813,-0.3125c0.75,0 1.30208,0.09375 1.65625,0.28125c0.35417,0.1875 0.58333,0.46875 0.6875,0.84375c0.11458,0.36458 0.17188,0.80729 0.17188,1.32813v28.0625c0,0.75 0.07292,1.39583 0.21875,1.9375c0.15625,0.54167 0.39063,1 0.70313,1.375c0.32292,0.36458 0.72396,0.625 1.20313,0.78125c0.48958,0.14583 1.07292,0.21875 1.75,0.21875c0.44792,0 0.82813,0.05729 1.14063,0.17188c0.3125,0.11458 0.5625,0.33854 0.75,0.67188c0.1875,0.33333 0.28125,0.85417 0.28125,1.5625c0,0.75 -0.09375,1.30208 -0.28125,1.65625c-0.1875,0.35417 -0.4375,0.57813 -0.75,0.67188c-0.3125,0.09375 -0.69271,0.14063 -1.14062,0.14063zM221.73873,260.22034c-1.83333,0 -3.58333,-0.35417 -5.25,-1.0625c-1.65625,-0.70833 -3.14062,-1.6875 -4.45312,-2.9375c-1.30208,-1.25 -2.32812,-2.71354 -3.07812,-4.39062c-0.73958,-1.6875 -1.10937,-3.51562 -1.10937,-5.48437c0,-1.94792 0.35417,-3.75 1.0625,-5.40625c0.70833,-1.66667 1.69792,-3.13542 2.96875,-4.40625c1.27083,-1.27083 2.73438,-2.26562 4.39063,-2.98437c1.66667,-0.72917 3.45313,-1.09375 5.35938,-1.09375c2.57292,0 4.89583,0.60938 6.96875,1.82813c2.07292,1.20833 3.72396,2.85938 4.95312,4.95313c1.22917,2.08333 1.84375,4.43229 1.84375,7.04688c0,2.05208 -0.375,3.92708 -1.125,5.625c-0.73958,1.69792 -1.74479,3.16667 -3.01562,4.40625c-1.27083,1.22917 -2.72917,2.1875 -4.375,2.875c-1.63542,0.6875 -3.34896,1.03125 -5.14062,1.03125zM221.62935,255.36096c1.5625,0 3.01563,-0.39062 4.35938,-1.17187c1.34375,-0.79167 2.42708,-1.875 3.25,-3.25c0.82292,-1.38542 1.23438,-2.95833 1.23438,-4.71875c0,-1.75 -0.38542,-3.29687 -1.15625,-4.64062c-0.76042,-1.34375 -1.8125,-2.39062 -3.15625,-3.14062c-1.34375,-0.75 -2.875,-1.125 -4.59375,-1.125c-1.64583,0 -3.13021,0.39583 -4.45312,1.1875c-1.32292,0.78125 -2.38542,1.84375 -3.1875,3.1875c-0.80208,1.34375 -1.20312,2.875 -1.20312,4.59375c0,1.79167 0.40625,3.36979 1.21875,4.73438c0.82292,1.36458 1.91667,2.43229 3.28125,3.20313c1.36458,0.76042 2.83333,1.14063 4.40625,1.14063zM252.75873,259.89221c-1.76042,0 -3.24479,-0.17187 -4.45312,-0.51562c-1.20833,-0.33333 -2.20833,-0.85417 -3,-1.5625c-0.78125,-0.70833 -1.34375,-1.63021 -1.6875,-2.76562c-0.33333,-1.13542 -0.5,-2.54687 -0.5,-4.23437v-24.75c0,-0.52083 0.05729,-0.96875 0.17188,-1.34375c0.11458,-0.375 0.33854,-0.66146 0.67188,-0.85937c0.34375,-0.20833 0.86979,-0.3125 1.57813,-0.3125c0.70833,0 1.24479,0.10417 1.60938,0.3125c0.375,0.19792 0.61979,0.47396 0.73438,0.82813c0.11458,0.35417 0.17188,0.79688 0.17188,1.32813v24.79688c0,0.96875 0.08333,1.74479 0.25,2.32813c0.16667,0.58333 0.42708,1.02604 0.78125,1.32813c0.35417,0.29167 0.82813,0.47396 1.42188,0.54688c0.60417,0.07292 1.33333,0.10938 2.1875,0.10938c0.60417,0 1.08854,0.05729 1.45313,0.17188c0.375,0.11458 0.65625,0.33854 0.84375,0.67188c0.1875,0.33333 0.28125,0.83854 0.28125,1.51563c0,0.70833 -0.10417,1.23958 -0.3125,1.59375c-0.19792,0.35417 -0.49479,0.57813 -0.89062,0.67188c-0.38542,0.09375 -0.82292,0.14063 -1.3125,0.14063zM240.21186,233.40784l5.375,0.04688l7.78125,-0.10937c0.53125,0 0.97917,0.04688 1.34375,0.14063c0.375,0.09375 0.66667,0.31771 0.875,0.67188c0.20833,0.35417 0.3125,0.88542 0.3125,1.59375c0,0.70833 -0.09375,1.23958 -0.28125,1.59375c-0.1875,0.35417 -0.46875,0.58854 -0.84375,0.70313c-0.375,0.11458 -0.82292,0.17188 -1.34375,0.17188l-7.67188,-0.10937l-5.65625,0.04688c-0.78125,0 -1.3125,-0.18229 -1.59375,-0.54687c-0.28125,-0.375 -0.42187,-0.99479 -0.42187,-1.85937c0,-0.82292 0.16667,-1.41667 0.5,-1.78125c0.33333,-0.375 0.875,-0.5625 1.625,-0.5625zM269.56473,259.89221c-1.19792,0 -2.27604,-0.10417 -3.23437,-0.3125c-0.94792,-0.20833 -1.77604,-0.53646 -2.48437,-0.98437c-0.70833,-0.44792 -1.29687,-1.02604 -1.76562,-1.73437c-0.46875,-0.70833 -0.80729,-1.5625 -1.01562,-2.5625c-0.19792,-1.01042 -0.29687,-2.1875 -0.29687,-3.53125v-28c0,-0.5625 0.04688,-1.03125 0.14063,-1.40625c0.09375,-0.375 0.32292,-0.66146 0.6875,-0.85937c0.375,-0.20833 0.90104,-0.3125 1.57813,-0.3125c0.75,0 1.30208,0.09375 1.65625,0.28125c0.35417,0.1875 0.58333,0.46875 0.6875,0.84375c0.11458,0.36458 0.17188,0.80729 0.17188,1.32813v28.0625c0,0.75 0.07292,1.39583 0.21875,1.9375c0.15625,0.54167 0.39063,1 0.70313,1.375c0.32292,0.36458 0.72396,0.625 1.20313,0.78125c0.48958,0.14583 1.07292,0.21875 1.75,0.21875c0.44792,0 0.82813,0.05729 1.14063,0.17188c0.3125,0.11458 0.5625,0.33854 0.75,0.67188c0.1875,0.33333 0.28125,0.85417 0.28125,1.5625c0,0.75 -0.09375,1.30208 -0.28125,1.65625c-0.1875,0.35417 -0.4375,0.57813 -0.75,0.67188c-0.3125,0.09375 -0.69271,0.14063 -1.14062,0.14063zM305.06637,259.89221c-0.70833,0 -1.23958,-0.10417 -1.59375,-0.3125c-0.35417,-0.20833 -0.58854,-0.50521 -0.70312,-0.89062c-0.11458,-0.39583 -0.17187,-0.85417 -0.17187,-1.375v-34c0,-0.52083 0.05729,-0.96354 0.17188,-1.32812c0.11458,-0.375 0.35417,-0.66667 0.71875,-0.875c0.375,-0.20833 0.91667,-0.3125 1.625,-0.3125c0.75,0 1.30208,0.10417 1.65625,0.3125c0.35417,0.20833 0.58854,0.5 0.70313,0.875c0.11458,0.36458 0.17188,0.82813 0.17188,1.39063v34c0,0.52083 -0.06771,0.96875 -0.20312,1.34375c-0.13542,0.36458 -0.38021,0.65104 -0.73438,0.85938c-0.35417,0.20833 -0.90104,0.3125 -1.64062,0.3125zM279.86323,259.89221c-0.75,0 -1.30208,-0.10417 -1.65625,-0.3125c-0.35417,-0.20833 -0.58854,-0.50521 -0.70312,-0.89062c-0.10417,-0.39583 -0.15625,-0.85417 -0.15625,-1.375v-34c0,-0.52083 0.0625,-0.96354 0.1875,-1.32812c0.13542,-0.375 0.38021,-0.66667 0.73438,-0.875c0.35417,-0.20833 0.90104,-0.3125 1.64063,-0.3125c0.71875,0 1.25521,0.10417 1.60938,0.3125c0.35417,0.20833 0.58333,0.5 0.6875,0.875c0.11458,0.36458 0.17188,0.82813 0.17188,1.39063v34c0,0.52083 -0.05729,0.96875 -0.17187,1.34375c-0.10417,0.36458 -0.34375,0.65104 -0.71875,0.85938c-0.375,0.20833 -0.91667,0.3125 -1.625,0.3125zM280.08198,242.18909v-4.70312h23.40626l-0.04687,4.70313zM327.52273,260.22034c-1.83333,0 -3.58333,-0.35417 -5.25,-1.0625c-1.65625,-0.70833 -3.14062,-1.6875 -4.45312,-2.9375c-1.30208,-1.25 -2.32812,-2.71354 -3.07812,-4.39062c-0.73958,-1.6875 -1.10937,-3.51562 -1.10937,-5.48437c0,-1.94792 0.35417,-3.75 1.0625,-5.40625c0.70833,-1.66667 1.69792,-3.13542 2.96875,-4.40625c1.27083,-1.27083 2.73437,-2.26562 4.39062,-2.98437c1.66667,-0.72917 3.45313,-1.09375 5.35938,-1.09375c2.57292,0 4.89583,0.60938 6.96875,1.82813c2.07292,1.20833 3.72396,2.85938 4.95313,4.95313c1.22917,2.08333 1.84375,4.43229 1.84375,7.04688c0,2.05208 -0.375,3.92708 -1.125,5.625c-0.73958,1.69792 -1.74479,3.16667 -3.01562,4.40625c-1.27083,1.22917 -2.72917,2.1875 -4.375,2.875c-1.63542,0.6875 -3.34896,1.03125 -5.14063,1.03125zM327.41335,255.36096c1.5625,0 3.01563,-0.39062 4.35938,-1.17187c1.34375,-0.79167 2.42708,-1.875 3.25,-3.25c0.82292,-1.38542 1.23438,-2.95833 1.23438,-4.71875c0,-1.75 -0.38542,-3.29687 -1.15625,-4.64062c-0.76042,-1.34375 -1.8125,-2.39062 -3.15625,-3.14062c-1.34375,-0.75 -2.875,-1.125 -4.59375,-1.125c-1.64583,0 -3.13021,0.39583 -4.45312,1.1875c-1.32292,0.78125 -2.38542,1.84375 -3.1875,3.1875c-0.80208,1.34375 -1.20312,2.875 -1.20312,4.59375c0,1.79167 0.40625,3.36979 1.21875,4.73438c0.82292,1.36458 1.91667,2.43229 3.28125,3.20313c1.36458,0.76042 2.83333,1.14063 4.40625,1.14063zM355.63271,260.17346c-0.89583,0 -1.83333,-0.09375 -2.8125,-0.28125c-0.96875,-0.1875 -1.91146,-0.45833 -2.82812,-0.8125c-0.90625,-0.35417 -1.70833,-0.77083 -2.40625,-1.25c-0.6875,-0.48958 -1.19792,-1.03646 -1.53125,-1.64062c-0.1875,-0.375 -0.30208,-0.71875 -0.34375,-1.03125c-0.03125,-0.3125 0.02604,-0.61979 0.17188,-0.92187c0.15625,-0.30208 0.38021,-0.59896 0.67188,-0.89062c0.375,-0.44792 0.75,-0.66146 1.125,-0.64062c0.375,0.01042 0.83854,0.26042 1.39063,0.75c0.41667,0.26042 0.90104,0.55208 1.45313,0.875c0.5625,0.3125 1.14063,0.58854 1.73438,0.82813c0.60417,0.23958 1.21354,0.44792 1.82813,0.625c0.61458,0.16667 1.22396,0.25 1.82813,0.25c1.71875,0 3.09896,-0.32812 4.14063,-0.98437c1.04167,-0.65625 1.5625,-1.52604 1.5625,-2.60937c0,-0.63542 -0.13021,-1.17708 -0.39062,-1.625c-0.26042,-0.44792 -0.61458,-0.82812 -1.0625,-1.14062c-0.44792,-0.32292 -0.95312,-0.59375 -1.51562,-0.8125c-0.55208,-0.22917 -1.17708,-0.44271 -1.875,-0.64062c-0.6875,-0.20833 -1.36979,-0.40625 -2.04687,-0.59375c-1,-0.26042 -1.98958,-0.55729 -2.96875,-0.89062c-0.96875,-0.34375 -1.84375,-0.78646 -2.625,-1.32812c-0.78125,-0.54167 -1.41667,-1.22917 -1.90625,-2.0625c-0.47917,-0.84375 -0.71875,-1.91667 -0.71875,-3.21875c0,-1.53125 0.39063,-2.85417 1.17188,-3.96875c0.78125,-1.125 1.88021,-1.99479 3.29688,-2.60937c1.42708,-0.625 3.08854,-0.9375 4.98438,-0.9375c0.82292,0 1.58854,0.05729 2.29688,0.17188c0.70833,0.11458 1.39063,0.29688 2.04688,0.54688c0.65625,0.23958 1.28125,0.51563 1.875,0.82813c0.59375,0.3125 1.17188,0.69271 1.73438,1.14063c0.67708,0.44792 1.03125,0.9375 1.0625,1.46875c0.04167,0.52083 -0.16146,1.0625 -0.60937,1.625c-0.33333,0.47917 -0.70833,0.78646 -1.125,0.92188c-0.40625,0.125 -0.81771,0.02083 -1.23437,-0.3125c-0.59375,-0.44792 -1.22917,-0.83854 -1.90625,-1.17187c-0.66667,-0.34375 -1.35417,-0.625 -2.0625,-0.84375c-0.70833,-0.22917 -1.4375,-0.34375 -2.1875,-0.34375c-0.92708,0 -1.75521,0.14063 -2.48437,0.42188c-0.72917,0.28125 -1.29167,0.69271 -1.6875,1.23438c-0.38542,0.54167 -0.57812,1.15104 -0.57812,1.82813c0,0.59375 0.15625,1.07813 0.46875,1.45313c0.3125,0.375 0.71875,0.69271 1.21875,0.95313c0.51042,0.26042 1.10938,0.49479 1.79688,0.70313c0.69792,0.19792 1.41667,0.39063 2.15625,0.57813c1.08333,0.26042 2.19271,0.56771 3.32813,0.92188c1.14583,0.35417 2.17708,0.82292 3.09375,1.40625c0.91667,0.58333 1.66146,1.34896 2.23438,2.29688c0.58333,0.94792 0.875,2.20833 0.875,3.78125c0,2.45833 -0.97396,4.40104 -2.92187,5.82813c-1.9375,1.41667 -4.51042,2.125 -7.71875,2.125zM384.19073,259.89221c-1.76042,0 -3.24479,-0.17187 -4.45312,-0.51562c-1.20833,-0.33333 -2.20833,-0.85417 -3,-1.5625c-0.78125,-0.70833 -1.34375,-1.63021 -1.6875,-2.76562c-0.33333,-1.13542 -0.5,-2.54687 -0.5,-4.23437v-24.75c0,-0.52083 0.05729,-0.96875 0.17188,-1.34375c0.11458,-0.375 0.33854,-0.66146 0.67187,-0.85937c0.34375,-0.20833 0.86979,-0.3125 1.57813,-0.3125c0.70833,0 1.24479,0.10417 1.60938,0.3125c0.375,0.19792 0.61979,0.47396 0.73438,0.82813c0.11458,0.35417 0.17188,0.79688 0.17188,1.32813v24.79688c0,0.96875 0.08333,1.74479 0.25,2.32813c0.16667,0.58333 0.42708,1.02604 0.78125,1.32813c0.35417,0.29167 0.82813,0.47396 1.42188,0.54688c0.60417,0.07292 1.33333,0.10938 2.1875,0.10938c0.60417,0 1.08854,0.05729 1.45313,0.17188c0.375,0.11458 0.65625,0.33854 0.84375,0.67188c0.1875,0.33333 0.28125,0.83854 0.28125,1.51563c0,0.70833 -0.10417,1.23958 -0.3125,1.59375c-0.19792,0.35417 -0.49479,0.57813 -0.89062,0.67188c-0.38542,0.09375 -0.82292,0.14063 -1.3125,0.14063zM371.64385,233.40784l5.375,0.04688l7.78125,-0.10937c0.53125,0 0.97917,0.04688 1.34375,0.14063c0.375,0.09375 0.66667,0.31771 0.875,0.67188c0.20833,0.35417 0.3125,0.88542 0.3125,1.59375c0,0.70833 -0.09375,1.23958 -0.28125,1.59375c-0.1875,0.35417 -0.46875,0.58854 -0.84375,0.70313c-0.375,0.11458 -0.82292,0.17188 -1.34375,0.17188l-7.67187,-0.10937l-5.65625,0.04688c-0.78125,0 -1.3125,-0.18229 -1.59375,-0.54687c-0.28125,-0.375 -0.42187,-0.99479 -0.42187,-1.85937c0,-0.82292 0.16667,-1.41667 0.5,-1.78125c0.33333,-0.375 0.875,-0.5625 1.625,-0.5625z" fill="#000000" stroke="none" stroke-width="1" stroke-linecap="square"/></g></g></svg>
